<svg width="24" height="24" viewBox="0 0 24 24" fill="none" xmlns="http://www.w3.org/2000/svg">
  <!-- Pixelated floppy disk icon matching reference image -->
  <!-- Black border -->
  <rect x="3" y="3" width="18" height="2" fill="#000000"/>
  <rect x="3" y="5" width="2" height="14" fill="#000000"/>
  <rect x="19" y="5" width="2" height="14" fill="#000000"/>
  <rect x="3" y="19" width="18" height="2" fill="#000000"/>
  
  <!-- Blue outer case -->
  <rect x="5" y="5" width="14" height="2" fill="#4A90E2"/>
  <rect x="5" y="7" width="2" height="10" fill="#4A90E2"/>
  <rect x="17" y="7" width="2" height="10" fill="#4A90E2"/>
  <rect x="5" y="17" width="14" height="2" fill="#4A90E2"/>
  
  <!-- Top metal section - gray -->
  <rect x="7" y="7" width="10" height="2" fill="#808080"/>
  
  <!-- White label area -->
  <rect x="7" y="9" width="10" height="4" fill="#FFFFFF"/>
  
  <!-- Black square in label -->
  <rect x="11" y="10" width="2" height="2" fill="#000000"/>
  
  <!-- Yellow/orange bottom section -->
  <rect x="7" y="13" width="10" height="4" fill="#FFD700"/>
  
  <!-- Label text lines -->
  <rect x="8" y="14" width="3" height="1" fill="#000000"/>
  <rect x="8" y="15" width="4" height="1" fill="#000000"/>
  <rect x="8" y="16" width="5" height="1" fill="#000000"/>
  
  <!-- Metal slider notch -->
  <rect x="15" y="5" width="2" height="2" fill="#C0C0C0"/>
  
  <!-- Red indicator dots -->
  <rect x="6" y="15" width="1" height="1" fill="#FF0000"/>
  <rect x="17" y="15" width="1" height="1" fill="#FF0000"/>
</svg>