<svg width="24" height="24" viewBox="0 0 24 24" fill="none" xmlns="http://www.w3.org/2000/svg">
  <!-- Pixelated gear icon with colors -->
  <!-- Gear teeth - metallic gray -->
  <rect x="10" y="2" width="4" height="2" fill="#6B7280"/>
  <rect x="8" y="4" width="8" height="2" fill="#6B7280"/>
  <rect x="6" y="6" width="2" height="2" fill="#6B7280"/>
  <rect x="16" y="6" width="2" height="2" fill="#6B7280"/>
  <rect x="4" y="8" width="2" height="2" fill="#6B7280"/>
  <rect x="18" y="8" width="2" height="2" fill="#6B7280"/>
  <rect x="2" y="10" width="2" height="4" fill="#6B7280"/>
  <rect x="20" y="10" width="2" height="4" fill="#6B7280"/>
  <rect x="4" y="14" width="2" height="2" fill="#6B7280"/>
  <rect x="18" y="14" width="2" height="2" fill="#6B7280"/>
  <rect x="6" y="16" width="2" height="2" fill="#6B7280"/>
  <rect x="16" y="16" width="2" height="2" fill="#6B7280"/>
  <rect x="8" y="18" width="8" height="2" fill="#6B7280"/>
  <rect x="10" y="20" width="4" height="2" fill="#6B7280"/>
  <!-- Center body - blue -->
  <rect x="8" y="8" width="8" height="8" fill="#3B82F6"/>
  <!-- Center hole - white -->
  <rect x="10" y="10" width="4" height="4" fill="#FFFFFF"/>
</svg>